<mxfile host="Electron" agent="Mozilla/5.0 (Windows NT 10.0; Win64; x64) AppleWebKit/537.36 (KHTML, like Gecko) draw.io/25.0.2 Chrome/128.0.6613.186 Electron/32.2.5 Safari/537.36" version="25.0.2">
  <diagram name="Page-1" id="j5NpKU-ZmqHJPvSCcANT">
    <mxGraphModel dx="1434" dy="836" grid="1" gridSize="10" guides="1" tooltips="1" connect="1" arrows="1" fold="1" page="1" pageScale="1" pageWidth="1100" pageHeight="850" math="0" shadow="0">
      <root>
        <mxCell id="0" />
        <mxCell id="1" parent="0" />
        <mxCell id="15TAHtcC4LjPjzNCC1kU-1" value="AWS Cloud" style="points=[[0,0],[0.25,0],[0.5,0],[0.75,0],[1,0],[1,0.25],[1,0.5],[1,0.75],[1,1],[0.75,1],[0.5,1],[0.25,1],[0,1],[0,0.75],[0,0.5],[0,0.25]];outlineConnect=0;gradientColor=none;html=1;whiteSpace=wrap;fontSize=14;fontStyle=1;container=1;pointerEvents=0;collapsible=0;recursiveResize=0;shape=mxgraph.aws4.group;grIcon=mxgraph.aws4.group_aws_cloud;strokeColor=#232F3E;fillColor=none;verticalAlign=top;align=left;spacingLeft=30;fontColor=#003366;dashed=0;strokeWidth=2;fontFamily=Courier New;" vertex="1" parent="1">
          <mxGeometry x="180" y="40" width="870" height="400" as="geometry" />
        </mxCell>
        <mxCell id="15TAHtcC4LjPjzNCC1kU-11" style="edgeStyle=orthogonalEdgeStyle;rounded=0;orthogonalLoop=1;jettySize=auto;html=1;strokeWidth=2;fontFamily=Courier New;fontSize=14;fontStyle=1;flowAnimation=1;strokeColor=#660000;fontColor=#003366;" edge="1" parent="15TAHtcC4LjPjzNCC1kU-1" source="15TAHtcC4LjPjzNCC1kU-2" target="15TAHtcC4LjPjzNCC1kU-4">
          <mxGeometry relative="1" as="geometry" />
        </mxCell>
        <mxCell id="15TAHtcC4LjPjzNCC1kU-2" value="Amazon&lt;div&gt;CloudFront&lt;/div&gt;" style="sketch=0;points=[[0,0,0],[0.25,0,0],[0.5,0,0],[0.75,0,0],[1,0,0],[0,1,0],[0.25,1,0],[0.5,1,0],[0.75,1,0],[1,1,0],[0,0.25,0],[0,0.5,0],[0,0.75,0],[1,0.25,0],[1,0.5,0],[1,0.75,0]];outlineConnect=0;fontColor=#003366;fillColor=#8C4FFF;strokeColor=#ffffff;dashed=0;verticalLabelPosition=bottom;verticalAlign=top;align=center;html=1;fontSize=14;fontStyle=1;aspect=fixed;shape=mxgraph.aws4.resourceIcon;resIcon=mxgraph.aws4.cloudfront;fontFamily=Courier New;" vertex="1" parent="15TAHtcC4LjPjzNCC1kU-1">
          <mxGeometry x="80" y="160" width="78" height="78" as="geometry" />
        </mxCell>
        <mxCell id="15TAHtcC4LjPjzNCC1kU-3" value="&lt;span&gt;US-EAST-2 (OHIO)&lt;/span&gt;" style="points=[[0,0],[0.25,0],[0.5,0],[0.75,0],[1,0],[1,0.25],[1,0.5],[1,0.75],[1,1],[0.75,1],[0.5,1],[0.25,1],[0,1],[0,0.75],[0,0.5],[0,0.25]];outlineConnect=0;gradientColor=none;html=1;whiteSpace=wrap;fontSize=14;fontStyle=1;container=1;pointerEvents=0;collapsible=0;recursiveResize=0;shape=mxgraph.aws4.group;grIcon=mxgraph.aws4.group_region;strokeColor=#00A4A6;fillColor=none;verticalAlign=top;align=left;spacingLeft=30;fontColor=#003366;dashed=1;strokeWidth=2;fontFamily=Courier New;" vertex="1" parent="15TAHtcC4LjPjzNCC1kU-1">
          <mxGeometry x="200" y="40" width="620" height="320" as="geometry" />
        </mxCell>
        <mxCell id="15TAHtcC4LjPjzNCC1kU-23" style="edgeStyle=orthogonalEdgeStyle;rounded=0;orthogonalLoop=1;jettySize=auto;html=1;flowAnimation=1;strokeWidth=2;strokeColor=#660000;fontFamily=Courier New;fontSize=14;fontStyle=1;fontColor=#003366;" edge="1" parent="15TAHtcC4LjPjzNCC1kU-3" source="15TAHtcC4LjPjzNCC1kU-4" target="15TAHtcC4LjPjzNCC1kU-6">
          <mxGeometry relative="1" as="geometry" />
        </mxCell>
        <mxCell id="15TAHtcC4LjPjzNCC1kU-4" value="Amazon S3&lt;div&gt;Static hosting&lt;/div&gt;" style="sketch=0;outlineConnect=0;fontColor=#003366;gradientColor=none;fillColor=#7AA116;strokeColor=none;dashed=0;verticalLabelPosition=bottom;verticalAlign=top;align=center;html=1;fontSize=14;fontStyle=1;aspect=fixed;pointerEvents=1;shape=mxgraph.aws4.bucket_with_objects;fontFamily=Courier New;" vertex="1" parent="15TAHtcC4LjPjzNCC1kU-3">
          <mxGeometry x="40" y="120" width="75" height="78" as="geometry" />
        </mxCell>
        <mxCell id="15TAHtcC4LjPjzNCC1kU-14" style="rounded=0;orthogonalLoop=1;jettySize=auto;html=1;flowAnimation=1;strokeWidth=2;strokeColor=#660000;fontFamily=Courier New;fontSize=14;fontStyle=1;fontColor=#003366;" edge="1" parent="15TAHtcC4LjPjzNCC1kU-3" source="15TAHtcC4LjPjzNCC1kU-6" target="15TAHtcC4LjPjzNCC1kU-7">
          <mxGeometry relative="1" as="geometry" />
        </mxCell>
        <mxCell id="15TAHtcC4LjPjzNCC1kU-15" style="rounded=0;orthogonalLoop=1;jettySize=auto;html=1;flowAnimation=1;strokeWidth=2;strokeColor=#660000;fontFamily=Courier New;fontSize=14;fontStyle=1;fontColor=#003366;" edge="1" parent="15TAHtcC4LjPjzNCC1kU-3" source="15TAHtcC4LjPjzNCC1kU-6" target="15TAHtcC4LjPjzNCC1kU-8">
          <mxGeometry relative="1" as="geometry" />
        </mxCell>
        <mxCell id="15TAHtcC4LjPjzNCC1kU-24" style="edgeStyle=orthogonalEdgeStyle;rounded=0;orthogonalLoop=1;jettySize=auto;html=1;flowAnimation=1;strokeWidth=2;strokeColor=#660000;fontFamily=Courier New;fontSize=14;fontStyle=1;fontColor=#003366;" edge="1" parent="15TAHtcC4LjPjzNCC1kU-3" source="15TAHtcC4LjPjzNCC1kU-6" target="15TAHtcC4LjPjzNCC1kU-4">
          <mxGeometry relative="1" as="geometry" />
        </mxCell>
        <mxCell id="15TAHtcC4LjPjzNCC1kU-6" value="API&lt;div&gt;Gateway&lt;/div&gt;" style="sketch=0;points=[[0,0,0],[0.25,0,0],[0.5,0,0],[0.75,0,0],[1,0,0],[0,1,0],[0.25,1,0],[0.5,1,0],[0.75,1,0],[1,1,0],[0,0.25,0],[0,0.5,0],[0,0.75,0],[1,0.25,0],[1,0.5,0],[1,0.75,0]];outlineConnect=0;fontColor=#003366;fillColor=#8C4FFF;strokeColor=#ffffff;dashed=0;verticalLabelPosition=bottom;verticalAlign=top;align=center;html=1;fontSize=14;fontStyle=1;aspect=fixed;shape=mxgraph.aws4.resourceIcon;resIcon=mxgraph.aws4.api_gateway;fontFamily=Courier New;" vertex="1" parent="15TAHtcC4LjPjzNCC1kU-3">
          <mxGeometry x="200" y="120" width="78" height="78" as="geometry" />
        </mxCell>
        <mxCell id="15TAHtcC4LjPjzNCC1kU-12" style="rounded=0;orthogonalLoop=1;jettySize=auto;html=1;entryX=0.5;entryY=0;entryDx=0;entryDy=0;entryPerimeter=0;fontFamily=Courier New;fontSize=14;fontStyle=1;flowAnimation=1;strokeWidth=2;strokeColor=#660000;fontColor=#003366;" edge="1" parent="15TAHtcC4LjPjzNCC1kU-3" source="15TAHtcC4LjPjzNCC1kU-7" target="15TAHtcC4LjPjzNCC1kU-9">
          <mxGeometry relative="1" as="geometry" />
        </mxCell>
        <mxCell id="15TAHtcC4LjPjzNCC1kU-7" value="generateToken" style="sketch=0;outlineConnect=0;fontColor=#003366;gradientColor=none;fillColor=#ED7100;strokeColor=none;dashed=0;verticalLabelPosition=bottom;verticalAlign=top;align=center;html=1;fontSize=14;fontStyle=1;aspect=fixed;pointerEvents=1;shape=mxgraph.aws4.lambda_function;fontFamily=Courier New;" vertex="1" parent="15TAHtcC4LjPjzNCC1kU-3">
          <mxGeometry x="370" y="20" width="80" height="80" as="geometry" />
        </mxCell>
        <mxCell id="15TAHtcC4LjPjzNCC1kU-8" value="retrieveTokens" style="sketch=0;outlineConnect=0;fontColor=#003366;gradientColor=none;fillColor=#ED7100;strokeColor=none;dashed=0;verticalLabelPosition=bottom;verticalAlign=top;align=center;html=1;fontSize=14;fontStyle=1;aspect=fixed;pointerEvents=1;shape=mxgraph.aws4.lambda_function;fontFamily=Courier New;" vertex="1" parent="15TAHtcC4LjPjzNCC1kU-3">
          <mxGeometry x="370" y="199" width="80" height="80" as="geometry" />
        </mxCell>
        <mxCell id="15TAHtcC4LjPjzNCC1kU-16" style="rounded=0;orthogonalLoop=1;jettySize=auto;html=1;exitX=0.5;exitY=1;exitDx=0;exitDy=0;exitPerimeter=0;flowAnimation=1;strokeWidth=2;strokeColor=#660000;fontFamily=Courier New;fontSize=14;fontStyle=1;fontColor=#003366;" edge="1" parent="15TAHtcC4LjPjzNCC1kU-3" source="15TAHtcC4LjPjzNCC1kU-9" target="15TAHtcC4LjPjzNCC1kU-8">
          <mxGeometry relative="1" as="geometry" />
        </mxCell>
        <mxCell id="15TAHtcC4LjPjzNCC1kU-9" value="Amazon&lt;div&gt;DynamoDB&lt;/div&gt;" style="sketch=0;points=[[0,0,0],[0.25,0,0],[0.5,0,0],[0.75,0,0],[1,0,0],[0,1,0],[0.25,1,0],[0.5,1,0],[0.75,1,0],[1,1,0],[0,0.25,0],[0,0.5,0],[0,0.75,0],[1,0.25,0],[1,0.5,0],[1,0.75,0]];outlineConnect=0;fontColor=#003366;fillColor=#C925D1;strokeColor=#ffffff;dashed=0;verticalLabelPosition=bottom;verticalAlign=top;align=center;html=1;fontSize=14;fontStyle=1;aspect=fixed;shape=mxgraph.aws4.resourceIcon;resIcon=mxgraph.aws4.dynamodb;fontFamily=Courier New;" vertex="1" parent="15TAHtcC4LjPjzNCC1kU-3">
          <mxGeometry x="520" y="120" width="78" height="78" as="geometry" />
        </mxCell>
        <mxCell id="15TAHtcC4LjPjzNCC1kU-13" value="" style="rounded=0;orthogonalLoop=1;jettySize=auto;html=1;entryX=0.5;entryY=1;entryDx=0;entryDy=0;entryPerimeter=0;fontFamily=Courier New;fontSize=14;fontStyle=1;flowAnimation=1;strokeWidth=2;strokeColor=#660000;fontColor=#003366;" edge="1" parent="15TAHtcC4LjPjzNCC1kU-3" source="15TAHtcC4LjPjzNCC1kU-8" target="15TAHtcC4LjPjzNCC1kU-9">
          <mxGeometry relative="1" as="geometry" />
        </mxCell>
        <mxCell id="15TAHtcC4LjPjzNCC1kU-17" style="rounded=0;orthogonalLoop=1;jettySize=auto;html=1;exitX=0.5;exitY=0;exitDx=0;exitDy=0;exitPerimeter=0;flowAnimation=1;strokeWidth=2;strokeColor=#660000;fontFamily=Courier New;fontSize=14;fontStyle=1;fontColor=#003366;" edge="1" parent="15TAHtcC4LjPjzNCC1kU-3" source="15TAHtcC4LjPjzNCC1kU-9" target="15TAHtcC4LjPjzNCC1kU-7">
          <mxGeometry relative="1" as="geometry" />
        </mxCell>
        <mxCell id="15TAHtcC4LjPjzNCC1kU-18" style="rounded=0;orthogonalLoop=1;jettySize=auto;html=1;flowAnimation=1;strokeWidth=2;strokeColor=#660000;fontFamily=Courier New;fontSize=14;fontStyle=1;fontColor=#003366;" edge="1" parent="15TAHtcC4LjPjzNCC1kU-3" source="15TAHtcC4LjPjzNCC1kU-7" target="15TAHtcC4LjPjzNCC1kU-6">
          <mxGeometry relative="1" as="geometry" />
        </mxCell>
        <mxCell id="15TAHtcC4LjPjzNCC1kU-33" value="&lt;span style=&quot;color: rgb(0, 51, 102); font-family: &amp;quot;Courier New&amp;quot;; font-size: 12px;&quot;&gt;&lt;b&gt;POST&lt;/b&gt;&lt;/span&gt;" style="edgeLabel;html=1;align=center;verticalAlign=middle;resizable=0;points=[];" vertex="1" connectable="0" parent="15TAHtcC4LjPjzNCC1kU-18">
          <mxGeometry x="0.0157" y="-3" relative="1" as="geometry">
            <mxPoint as="offset" />
          </mxGeometry>
        </mxCell>
        <mxCell id="15TAHtcC4LjPjzNCC1kU-19" style="rounded=0;orthogonalLoop=1;jettySize=auto;html=1;entryX=1;entryY=0.75;entryDx=0;entryDy=0;entryPerimeter=0;flowAnimation=1;strokeWidth=2;strokeColor=#660000;fontFamily=Courier New;fontSize=14;fontStyle=1;fontColor=#003366;" edge="1" parent="15TAHtcC4LjPjzNCC1kU-3" target="15TAHtcC4LjPjzNCC1kU-6">
          <mxGeometry relative="1" as="geometry">
            <mxPoint x="370" y="220" as="sourcePoint" />
          </mxGeometry>
        </mxCell>
        <mxCell id="15TAHtcC4LjPjzNCC1kU-32" value="&lt;span style=&quot;color: rgb(0, 51, 102); font-family: &amp;quot;Courier New&amp;quot;; font-size: 12px; font-weight: 700;&quot;&gt;GET&lt;/span&gt;" style="edgeLabel;html=1;align=center;verticalAlign=middle;resizable=0;points=[];" vertex="1" connectable="0" parent="15TAHtcC4LjPjzNCC1kU-19">
          <mxGeometry x="0.0644" relative="1" as="geometry">
            <mxPoint as="offset" />
          </mxGeometry>
        </mxCell>
        <mxCell id="15TAHtcC4LjPjzNCC1kU-26" style="edgeStyle=orthogonalEdgeStyle;rounded=0;orthogonalLoop=1;jettySize=auto;html=1;flowAnimation=1;strokeWidth=2;strokeColor=#660000;fontFamily=Courier New;fontSize=14;fontStyle=1;fontColor=#003366;" edge="1" parent="15TAHtcC4LjPjzNCC1kU-1" source="15TAHtcC4LjPjzNCC1kU-4" target="15TAHtcC4LjPjzNCC1kU-2">
          <mxGeometry relative="1" as="geometry" />
        </mxCell>
        <mxCell id="15TAHtcC4LjPjzNCC1kU-27" value="WAF" style="sketch=0;points=[[0,0,0],[0.25,0,0],[0.5,0,0],[0.75,0,0],[1,0,0],[0,1,0],[0.25,1,0],[0.5,1,0],[0.75,1,0],[1,1,0],[0,0.25,0],[0,0.5,0],[0,0.75,0],[1,0.25,0],[1,0.5,0],[1,0.75,0]];outlineConnect=0;fontColor=#003366;fillColor=#DD344C;strokeColor=#ffffff;dashed=0;verticalLabelPosition=bottom;verticalAlign=top;align=center;html=1;fontSize=14;fontStyle=1;aspect=fixed;shape=mxgraph.aws4.resourceIcon;resIcon=mxgraph.aws4.waf;fontFamily=Courier New;" vertex="1" parent="15TAHtcC4LjPjzNCC1kU-1">
          <mxGeometry x="80" y="40" width="78" height="78" as="geometry" />
        </mxCell>
        <mxCell id="15TAHtcC4LjPjzNCC1kU-28" style="edgeStyle=orthogonalEdgeStyle;rounded=0;orthogonalLoop=1;jettySize=auto;html=1;entryX=0.5;entryY=0;entryDx=0;entryDy=0;entryPerimeter=0;flowAnimation=1;strokeWidth=2;strokeColor=#660000;fontFamily=Courier New;fontSize=14;fontStyle=1;fontColor=#003366;" edge="1" parent="15TAHtcC4LjPjzNCC1kU-1" source="15TAHtcC4LjPjzNCC1kU-27" target="15TAHtcC4LjPjzNCC1kU-2">
          <mxGeometry relative="1" as="geometry" />
        </mxCell>
        <mxCell id="15TAHtcC4LjPjzNCC1kU-30" style="edgeStyle=orthogonalEdgeStyle;rounded=0;orthogonalLoop=1;jettySize=auto;html=1;flowAnimation=1;strokeWidth=2;strokeColor=#660000;fontFamily=Courier New;fontSize=14;fontStyle=1;fontColor=#003366;" edge="1" parent="1" source="15TAHtcC4LjPjzNCC1kU-29" target="15TAHtcC4LjPjzNCC1kU-2">
          <mxGeometry relative="1" as="geometry" />
        </mxCell>
        <mxCell id="15TAHtcC4LjPjzNCC1kU-29" value="Users/Clients" style="sketch=0;outlineConnect=0;fontColor=#003366;gradientColor=none;fillColor=#232F3D;strokeColor=none;dashed=0;verticalLabelPosition=bottom;verticalAlign=top;align=center;html=1;fontSize=14;fontStyle=1;aspect=fixed;pointerEvents=1;shape=mxgraph.aws4.users;fontFamily=Courier New;" vertex="1" parent="1">
          <mxGeometry x="30" y="200" width="78" height="78" as="geometry" />
        </mxCell>
      </root>
    </mxGraphModel>
  </diagram>
</mxfile>
